<svg width="18" height="18" viewBox="0 0 18 18" fill="none" xmlns="http://www.w3.org/2000/svg">
<g clip-path="url(#clip0_527_21)">
<path fill-rule="evenodd" clip-rule="evenodd" d="M9 1.8C5.02355 1.8 1.8 5.02355 1.8 9C1.8 12.9764 5.02355 16.2 9 16.2C12.9764 16.2 16.2 12.9764 16.2 9C16.2 5.02355 12.9764 1.8 9 1.8ZM0 9C0 4.02944 4.02944 0 9 0C13.9705 0 18 4.02944 18 9C18 13.9705 13.9705 18 9 18C4.02944 18 0 13.9705 0 9Z" fill="#FF2626"/>
<path fill-rule="evenodd" clip-rule="evenodd" d="M9.00035 4.5C9.4974 4.5 9.90035 4.90295 9.90035 5.4V9C9.90035 9.49705 9.4974 9.9 9.00035 9.9C8.5033 9.9 8.10034 9.49705 8.10034 9V5.4C8.10034 4.90295 8.5033 4.5 9.00035 4.5Z" fill="#FF2626"/>
<path fill-rule="evenodd" clip-rule="evenodd" d="M8.10034 12.6C8.10034 12.103 8.5033 11.7 9.00035 11.7H9.00935C9.5064 11.7 9.90935 12.103 9.90935 12.6C9.90935 13.0971 9.5064 13.5 9.00935 13.5H9.00035C8.5033 13.5 8.10034 13.0971 8.10034 12.6Z" fill="#FF2626"/>
</g>
<defs>
<clipPath id="clip0_527_21">
<rect width="18" height="18" fill="white"/>
</clipPath>
</defs>
</svg>
