<svg width="18" height="18" viewBox="0 0 18 18" fill="none" xmlns="http://www.w3.org/2000/svg">
<g clip-path="url(#clip0_526_6)">
<path fill-rule="evenodd" clip-rule="evenodd" d="M9 1.8C5.02355 1.8 1.8 5.02355 1.8 9C1.8 12.9764 5.02355 16.2 9 16.2C12.9764 16.2 16.2 12.9764 16.2 9C16.2 5.02355 12.9764 1.8 9 1.8ZM0 9C0 4.02944 4.02944 0 9 0C13.9705 0 18 4.02944 18 9C18 13.9705 13.9705 18 9 18C4.02944 18 0 13.9705 0 9Z" fill="#03A99F"/>
<path fill-rule="evenodd" clip-rule="evenodd" d="M12.336 6.56356C12.6875 6.91503 12.6875 7.48488 12.336 7.83635L8.73603 11.4364C8.38462 11.7878 7.81473 11.7878 7.46326 11.4364L5.66326 9.63638C5.31179 9.28489 5.31179 8.71502 5.66326 8.36353C6.01473 8.01209 6.58458 8.01209 6.93605 8.36353L8.09966 9.52715L11.0633 6.56356C11.4148 6.21209 11.9846 6.21209 12.336 6.56356Z" fill="#03A99F"/>
</g>
<defs>
<clipPath id="clip0_526_6">
<rect width="18" height="18" fill="white"/>
</clipPath>
</defs>
</svg>
